# xmcd CD database file
#
# Track frame offsets:
#	150
#	11702
#	39900
#	55443
#	60936
#	84752
#	104728
#	120611
#	140927
#	161694
#	170976
#	187462
#	211449
#	226550
#	242806
#	256686
#	280206
#	295604
#	340340
#
# Disc length: 4729 seconds
#
# Revision: 0
# Processed by: cddbd v1.5.2PL0 Copyright (c) Steve Scherf et al.
# Submitted via: CDex 1.70beta2
#
DISCID=1a127713
DTITLE=Miles Davis - Miles in the Clouds
DYEAR=1900
DGENRE=Jazz
TTITLE0=Move
TTITLE1=My Man's Gone Now
TTITLE2=Springsville
TTITLE3=Here Come De Honey man
TTITLE4=The Jitterbug Waltz
TTITLE5=It Ain't Necessarily So
TTITLE6=Miles Ahead
TTITLE7=My Ship
TTITLE8=New Rhumba
TTITLE9=Gone, Gone, Gone
TTITLE10=Gone
TTITLE11=Blues for Pablo
TTITLE12=Wild Man Blues
TTITLE13=The Duke
TTITLE14=I Don't Wanna Be Kissed (By Anyone But You)
TTITLE15=Bess, You Is My Woman Now
TTITLE16=There's A Boat That's Leaving Soon For New York
TTITLE17=Poem For Brass
TTITLE18=Godchild
EXTD=
EXTT0=
EXTT1=
EXTT2=
EXTT3=
EXTT4=
EXTT5=
EXTT6=
EXTT7=
EXTT8=
EXTT9=
EXTT10=
EXTT11=
EXTT12=
EXTT13=
EXTT14=
EXTT15=
EXTT16=
EXTT17=
EXTT18=
PLAYORDER=
